<svg id="visual" viewBox="0 0 900 600" width="900" height="600" xmlns="http://www.w3.org/2000/svg" xmlns:xlink="http://www.w3.org/1999/xlink" version="1.1"><rect x="0" y="0" width="900" height="600" fill="#020406"></rect><path d="M0 208L21.5 198.5C43 189 86 170 128.8 167.8C171.7 165.7 214.3 180.3 257.2 193.8C300 207.3 343 219.7 385.8 221.3C428.7 223 471.3 214 514.2 203.3C557 192.7 600 180.3 642.8 179C685.7 177.7 728.3 187.3 771.2 193.7C814 200 857 203 878.5 204.5L900 206L900 0L878.5 0C857 0 814 0 771.2 0C728.3 0 685.7 0 642.8 0C600 0 557 0 514.2 0C471.3 0 428.7 0 385.8 0C343 0 300 0 257.2 0C214.3 0 171.7 0 128.8 0C86 0 43 0 21.5 0L0 0Z" fill="#000000"></path><path d="M0 130L21.5 128.7C43 127.3 86 124.7 128.8 128.8C171.7 133 214.3 144 257.2 156C300 168 343 181 385.8 189.2C428.7 197.3 471.3 200.7 514.2 196.2C557 191.7 600 179.3 642.8 174.5C685.7 169.7 728.3 172.3 771.2 164.2C814 156 857 137 878.5 127.5L900 118L900 0L878.5 0C857 0 814 0 771.2 0C728.3 0 685.7 0 642.8 0C600 0 557 0 514.2 0C471.3 0 428.7 0 385.8 0C343 0 300 0 257.2 0C214.3 0 171.7 0 128.8 0C86 0 43 0 21.5 0L0 0Z" fill="#004600"></path><path d="M0 134L21.5 130.5C43 127 86 120 128.8 124.5C171.7 129 214.3 145 257.2 147.8C300 150.7 343 140.3 385.8 129.5C428.7 118.7 471.3 107.3 514.2 101.8C557 96.3 600 96.7 642.8 104.5C685.7 112.3 728.3 127.7 771.2 134.3C814 141 857 139 878.5 138L900 137L900 0L878.5 0C857 0 814 0 771.2 0C728.3 0 685.7 0 642.8 0C600 0 557 0 514.2 0C471.3 0 428.7 0 385.8 0C343 0 300 0 257.2 0C214.3 0 171.7 0 128.8 0C86 0 43 0 21.5 0L0 0Z" fill="#008100"></path><path d="M0 60L21.5 62.5C43 65 86 70 128.8 72.8C171.7 75.7 214.3 76.3 257.2 75.5C300 74.7 343 72.3 385.8 71.5C428.7 70.7 471.3 71.3 514.2 73.5C557 75.7 600 79.3 642.8 81.3C685.7 83.3 728.3 83.7 771.2 79C814 74.3 857 64.7 878.5 59.8L900 55L900 0L878.5 0C857 0 814 0 771.2 0C728.3 0 685.7 0 642.8 0C600 0 557 0 514.2 0C471.3 0 428.7 0 385.8 0C343 0 300 0 257.2 0C214.3 0 171.7 0 128.8 0C86 0 43 0 21.5 0L0 0Z" fill="#33be17"></path><path d="M0 65L21.5 58.8C43 52.7 86 40.3 128.8 38.8C171.7 37.3 214.3 46.7 257.2 47.7C300 48.7 343 41.3 385.8 41.5C428.7 41.7 471.3 49.3 514.2 48.3C557 47.3 600 37.7 642.8 40.2C685.7 42.7 728.3 57.3 771.2 58.5C814 59.7 857 47.3 878.5 41.2L900 35L900 0L878.5 0C857 0 814 0 771.2 0C728.3 0 685.7 0 642.8 0C600 0 557 0 514.2 0C471.3 0 428.7 0 385.8 0C343 0 300 0 257.2 0C214.3 0 171.7 0 128.8 0C86 0 43 0 21.5 0L0 0Z" fill="#5eff2c"></path></svg>